<?xml version="1.0" encoding="iso-8859-1"?>
<!-- Generator: Adobe Illustrator 19.0.0, SVG Export Plug-In . SVG Version: 6.00 Build 0)  -->
<svg version="1.1" id="Layer_1" xmlns="http://www.w3.org/2000/svg" xmlns:xlink="http://www.w3.org/1999/xlink" x="0px" y="0px"
	 viewBox="0 0 512 512" style="enable-background:new 0 0 512 512;" xml:space="preserve">
<rect x="8.425" y="322.305" style="fill:#8A8990;" width="495.151" height="63.007"/>
<g>
	<rect x="481.11" y="322.305" style="fill:#56555B;" width="22.467" height="63.007"/>
	<polygon style="fill:#56555B;" points="446.636,203.547 64.241,203.547 32.658,322.299 479.342,322.299 	"/>
</g>
<polygon style="fill:#3B3B3F;" points="446.636,203.547 424.169,203.547 456.875,322.299 479.342,322.299 "/>
<path style="fill:#FF9F34;" d="M428.717,203.547c-4.055-18.265-20.34-31.926-39.826-31.926c-2.289,0-4.533,0.198-6.719,0.561
	c-3.133-19.423-19.969-34.26-40.277-34.26c-18.257,0-33.711,11.992-38.923,28.527c-1.961-0.29-3.968-0.444-6.01-0.444
	c-6.047,0-11.781,1.326-16.943,3.686c-7.484-9.108-18.834-14.919-31.543-14.919c-2.042,0-4.048,0.154-6.01,0.444
	c-5.212-16.535-20.666-28.527-38.923-28.527c-18.097,0-33.432,11.785-38.777,28.094c-9.306,1.156-17.641,5.435-23.913,11.769
	c-6.257-3.902-13.642-6.164-21.559-6.164c-22.537,0-40.807,18.27-40.807,40.807c0,0.791,0.028,1.574,0.072,2.353h350.159V203.547z"
	/>
<path style="fill:#DA7A27;" d="M388.89,171.621c-2.289,0-4.533,0.198-6.719,0.561c-3.133-19.423-19.969-34.259-40.277-34.259
	c-3.897,0-7.664,0.55-11.234,1.57c15.03,4.297,26.513,16.993,29.045,32.689c2.187-0.363,4.429-0.561,6.719-0.561
	c19.486,0,35.771,13.662,39.826,31.926h22.467C424.661,185.282,408.376,171.621,388.89,171.621z"/>
<path d="M503.575,313.875H485.76L454.759,201.31c-1.008-3.655-4.332-6.188-8.123-6.188h-11.671
	c-7.12-18.845-25.512-31.927-46.073-31.927c-0.086,0-0.172,0-0.258,0.001c-6.546-19.923-25.114-33.701-46.738-33.701
	c-19.301,0-36.423,11.043-44.478,28.085c-5.202-0.053-10.245,0.7-15.114,2.224c-9.203-8.722-21.368-13.565-34.283-13.457
	c-8.055-17.042-25.177-28.085-44.478-28.085c-19.599,0-37.056,11.491-44.921,29.074c-6.877,1.613-13.365,4.71-18.955,9.038
	c-6.369-2.899-13.308-4.412-20.374-4.412c-25.09,0-45.841,18.87-48.843,43.16h-6.208c-3.819,0-7.16,2.569-8.142,6.259
	L26.181,313.875H8.425C3.772,313.875,0,317.646,0,322.3v63.013c0,4.654,3.772,8.425,8.425,8.425h495.15
	c4.653,0,8.425-3.771,8.425-8.425V322.3C512,317.647,508.228,313.875,503.575,313.875z M495.15,376.888H16.85v-46.163h15.809h82.925
	h0.001c4.653,0,8.425-3.771,8.425-8.425s-3.772-8.425-8.425-8.425h-0.001H43.617l27.103-101.904h7.839h244.841l0,0
	c4.653,0,8.425-3.771,8.425-8.425s-3.772-8.425-8.425-8.425l0,0H87.481c2.85-14.963,16.031-26.311,31.81-26.311
	c6.06,0,11.974,1.691,17.1,4.889c3.337,2.08,7.675,1.575,10.445-1.221c5.084-5.132,11.82-8.449,18.965-9.336
	c3.237-0.402,5.952-2.638,6.968-5.738c4.37-13.334,16.735-22.294,30.771-22.294c14.208,0,26.621,9.097,30.888,22.635
	c1.244,3.947,5.171,6.403,9.266,5.802c1.589-0.235,3.198-0.354,4.779-0.354c9.725,0,18.849,4.317,25.033,11.842
	c2.426,2.954,6.537,3.905,10.012,2.315c5.68-2.596,11.93-3.496,18.22-2.569c4.101,0.601,8.022-1.853,9.266-5.802
	c4.268-13.539,16.68-22.635,30.888-22.635c15.978,0,29.419,11.43,31.96,27.177c0.357,2.212,1.581,4.19,3.399,5.499
	c1.819,1.308,4.083,1.836,6.294,1.473c13.31-2.205,25.947,4.079,32.684,14.629H357.1l0,0c-4.653,0-8.425,3.771-8.425,8.425
	s3.772,8.425,8.425,8.425l0,0h71.617h11.501l28.065,101.904H149.285c-4.653,0-8.425,3.771-8.425,8.425
	c0,4.654,3.772,8.425,8.425,8.425h330.058h15.809v46.162H495.15z"/>
<g>
</g>
<g>
</g>
<g>
</g>
<g>
</g>
<g>
</g>
<g>
</g>
<g>
</g>
<g>
</g>
<g>
</g>
<g>
</g>
<g>
</g>
<g>
</g>
<g>
</g>
<g>
</g>
<g>
</g>
</svg>
